<svg width="213" height="80" viewBox="0 0 213 80" fill="none" xmlns="http://www.w3.org/2000/svg">
<g clip-path="url(#clip0_5_8)">
<path d="M43.9775 31.467H49.1412V55.583H60.8454V59.8818H43.9775V31.467Z" fill="#05225D"/>
<path d="M83.6511 49.4358C83.7612 50.8668 83.5673 52.3048 83.0823 53.6558C82.5974 55.0067 81.8321 56.2401 80.8368 57.275C79.8415 58.3099 78.6385 59.1231 77.3067 59.6612C75.9749 60.1993 74.5443 60.4503 73.1086 60.3976C71.7022 60.4674 70.297 60.2391 68.9852 59.7278C67.6734 59.2166 66.4847 58.4338 65.4972 57.431C64.5096 56.4283 63.7457 55.2281 63.2554 53.9094C62.7651 52.5907 62.5595 51.1833 62.6523 49.7797C62.5469 48.3465 62.7475 46.9073 63.2408 45.5574C63.7341 44.2075 64.5088 42.9778 65.5137 41.9495C66.5186 40.9212 67.7307 40.118 69.0697 39.5929C70.4087 39.0679 71.8441 38.833 73.2808 38.9038C74.6776 38.827 76.0748 39.0482 77.3794 39.5527C78.684 40.0572 79.8662 40.8334 80.8472 41.8297C81.8282 42.8261 82.5856 44.0196 83.0691 45.3311C83.5525 46.6425 83.7509 48.0418 83.6511 49.4358ZM68.1602 49.4358C68.1602 53.3906 70.0965 56.3998 73.2808 56.3998C76.465 56.3998 78.3153 53.4766 78.3153 49.3498C78.3153 46.1687 76.8523 42.4718 73.3238 42.4718C69.7953 42.4718 68.1602 46.2547 68.1602 49.6507V49.4358Z" fill="#05225D"/>
<path d="M106.585 56.9156C106.769 58.5981 106.591 60.3004 106.064 61.9089C105.538 63.5174 104.674 64.9953 103.53 66.244C101.264 68.0059 98.4369 68.8913 95.5694 68.7372C93.0748 68.803 90.6038 68.2412 88.3833 67.1037L89.5452 63.1489C91.367 64.1885 93.4283 64.7366 95.5264 64.7394C96.3439 64.7981 97.1642 64.6738 97.9275 64.3756C98.6908 64.0773 99.3779 63.6126 99.9387 63.0154C100.499 62.4182 100.92 61.7034 101.169 60.9233C101.418 60.1433 101.489 59.3175 101.378 58.5062V56.7437C100.71 57.715 99.808 58.5034 98.7556 59.0366C97.7032 59.5698 96.5338 59.8308 95.3543 59.7958C94.1163 59.7326 92.9042 59.4179 91.792 58.8711C90.6798 58.3243 89.6909 57.5568 88.8855 56.6155C88.0801 55.6741 87.4752 54.5787 87.1078 53.396C86.7403 52.2133 86.618 50.9682 86.7482 49.7367C86.6122 48.4057 86.7492 47.061 87.1508 45.7847C87.5525 44.5084 88.2103 43.3273 89.0842 42.3135C89.958 41.2996 91.0296 40.4744 92.2334 39.8882C93.4372 39.302 94.7481 38.967 96.0858 38.9038C97.2843 38.8323 98.4789 39.0962 99.5355 39.6657C100.592 40.2353 101.469 41.0879 102.067 42.1279V39.3767H106.585C106.585 40.7523 106.585 42.4288 106.585 45.266V56.9156ZM101.378 47.5873C101.444 47.1312 101.444 46.6679 101.378 46.2117C101.16 45.242 100.612 44.3779 99.8271 43.7666C99.0425 43.1552 98.0702 42.8344 97.0755 42.8587C94.1494 42.8587 91.9979 45.395 91.9979 49.5648C91.9979 53.7346 93.7621 55.8839 97.0325 55.8839C97.9927 55.9221 98.938 55.6381 99.7178 55.0772C100.498 54.5162 101.067 53.7107 101.335 52.7888C101.419 52.1474 101.434 51.4989 101.378 50.8544V47.5873Z" fill="#05225D"/>
<path d="M117.516 33.6593C117.516 34.4346 117.208 35.1781 116.659 35.7263C116.11 36.2745 115.366 36.5825 114.59 36.5825C113.814 36.5825 113.07 36.2745 112.521 35.7263C111.972 35.1781 111.664 34.4346 111.664 33.6593C111.664 32.884 111.972 32.1405 112.521 31.5923C113.07 31.0441 113.814 30.7361 114.59 30.7361C115.366 30.7361 116.11 31.0441 116.659 31.5923C117.208 32.1405 117.516 32.884 117.516 33.6593ZM111.965 59.9677V39.3767H117.215V59.9248L111.965 59.9677Z" fill="#05225D"/>
<path d="M137.913 59.4519C136.058 60.2157 134.067 60.5959 132.061 60.5696C130.65 60.6641 129.235 60.4568 127.911 59.9616C126.586 59.4663 125.383 58.6945 124.381 57.6977C123.379 56.7008 122.602 55.5019 122.101 54.1809C121.6 52.86 121.386 51.4475 121.475 50.0376C121.422 48.5431 121.686 47.0543 122.249 45.6687C122.812 44.283 123.661 43.0318 124.742 41.9969C125.822 40.962 127.11 40.1669 128.519 39.6635C129.929 39.1601 131.429 38.9598 132.921 39.0758C134.649 39.0655 136.361 39.4017 137.956 40.0645L137.009 43.9334C135.783 43.3666 134.444 43.0872 133.093 43.1166C131.423 43.251 129.864 44.009 128.727 45.2397C127.59 46.4704 126.959 48.0836 126.959 49.7582C126.959 51.4328 127.59 53.046 128.727 54.2767C129.864 55.5074 131.423 56.2654 133.093 56.3998C134.495 56.4315 135.888 56.1679 137.181 55.626L137.913 59.4519Z" fill="#05225D"/>
<path d="M157.707 55.1531C157.682 56.8062 157.782 58.4588 158.008 60.0967H153.317L152.973 57.8184C152.237 58.7063 151.308 59.4153 150.257 59.892C149.206 60.3686 148.06 60.6003 146.906 60.5696C146.071 60.6167 145.236 60.4922 144.452 60.2038C143.667 59.9155 142.95 59.4694 142.345 58.8932C141.74 58.3171 141.26 57.623 140.934 56.854C140.609 56.085 140.444 55.2574 140.451 54.4223C140.451 49.2208 145.056 46.6416 152.672 46.6846V46.3407C152.672 44.9651 152.113 42.7297 148.369 42.7297C146.426 42.7329 144.521 43.2681 142.861 44.2773L141.828 40.8812C144.115 39.6539 146.678 39.0323 149.273 39.0758C150.44 38.92 151.627 39.0352 152.742 39.4122C153.857 39.7892 154.87 40.4179 155.703 41.2496C156.535 42.0812 157.165 43.0934 157.542 44.2074C157.919 45.3215 158.035 46.5075 157.879 47.6733L157.707 55.1531ZM152.672 50.0376C148.971 50.0376 145.486 50.7684 145.486 53.8635C145.447 54.259 145.495 54.6583 145.628 55.0331C145.76 55.4079 145.974 55.7489 146.253 56.032C146.532 56.3151 146.87 56.5333 147.243 56.6712C147.617 56.809 148.016 56.8631 148.412 56.8296C149.304 56.8382 150.176 56.5697 150.908 56.0615C151.641 55.5532 152.197 54.8302 152.5 53.9925C152.562 53.6225 152.562 53.2447 152.5 52.8748L152.672 50.0376Z" fill="#05225D"/>
<path d="M163.214 29.9624H168.464V60.0537H163.214V29.9624Z" fill="#05225D"/>
<path d="M188.215 31.467V59.9248H183.137V31.467H188.215Z" fill="#D63945"/>
<path d="M199.618 35.8087H191.743V31.5099H213.258V35.8087H204.652V59.9248H199.446L199.618 35.8087Z" fill="#D63945"/>
<path fill-rule="evenodd" clip-rule="evenodd" d="M46.5591 75.3573C40.8078 75.3738 35.1389 73.9907 30.0427 71.3275C24.9464 68.6644 20.5761 64.8013 17.3096 60.0722C14.0431 55.3432 11.9786 49.8905 11.2947 44.1856C10.6108 38.4807 11.328 32.6952 13.3844 27.3293C15.4407 21.9635 18.7743 17.1787 23.0969 13.3886C27.4196 9.59849 32.6012 6.91719 38.1938 5.57647C43.7864 4.23575 49.6217 4.27596 55.1953 5.69363C60.7688 7.11129 65.9129 9.86375 70.1828 13.713C64.8243 7.56743 57.7153 3.20268 49.8066 1.20247C41.8978 -0.797739 33.5663 -0.33806 25.9261 2.52004C18.2859 5.37815 11.7013 10.4984 7.05281 17.1962C2.40432 23.8939 -0.0864258 31.8498 -0.0864258 40C-0.0864258 48.1502 2.40432 56.1061 7.05281 62.8038C11.7013 69.5015 18.2859 74.6218 25.9261 77.4799C33.5663 80.338 41.8978 80.7977 49.8066 78.7975C57.7153 76.7973 64.8243 72.4325 70.1828 66.2869C63.7084 72.1353 55.2878 75.3685 46.5591 75.3573Z" fill="#D63945"/>
<path fill-rule="evenodd" clip-rule="evenodd" d="M32.0579 62.2031C29.6704 59.6627 27.8072 56.6775 26.5745 53.4178C25.3419 50.1581 24.764 46.6877 24.8739 43.2049C24.9838 39.7221 25.7793 36.295 27.2149 33.1193C28.6506 29.9436 30.6983 27.0815 33.2412 24.6964C35.784 22.3113 38.7723 20.4499 42.0352 19.2185C45.2982 17.9871 48.772 17.4098 52.2583 17.5196C55.7445 17.6293 59.175 18.424 62.3539 19.8583C65.5327 21.2925 68.3977 23.3382 70.7851 25.8785C71.7553 26.8877 72.6337 27.981 73.41 29.1456C72.1152 26.0215 70.2306 23.1755 67.8591 20.763C62.7749 15.3646 55.7523 12.205 48.3362 11.9793C40.9201 11.7536 33.718 14.4802 28.3142 19.5593C22.9105 24.6385 19.7477 31.6541 19.5218 39.0629C19.2958 46.4716 22.0252 53.6666 27.1094 59.065C29.4028 61.5209 32.1308 63.5321 35.156 64.9973C34.0428 64.159 33.006 63.224 32.0579 62.2031Z" fill="#D63945"/>
</g>
<defs>
<clipPath id="clip0_5_8">
<rect width="213" height="80" fill="white"/>
</clipPath>
</defs>
</svg>
