<svg xmlns="http://www.w3.org/2000/svg">
<g filter="url(#filter0_d_1_123)">
<rect opacity="0.5" x="174" y="100" width="3" height="240" fill="white"/>
<rect x="174" y="100" width="3" height="60" fill="white"/>
<path d="M106.211 132.216C105.539 132.216 104.915 132.087 104.339 131.829C103.763 131.565 103.262 131.205 102.836 130.749C102.416 130.287 102.104 129.753 101.9 129.147L103.655 128.499C103.913 129.069 104.282 129.531 104.762 129.885C105.242 130.239 105.77 130.416 106.346 130.416C106.928 130.416 107.399 130.263 107.759 129.957C108.119 129.651 108.299 129.207 108.299 128.625C108.299 128.241 108.179 127.902 107.939 127.608C107.699 127.314 107.384 127.053 106.994 126.825C106.604 126.591 106.184 126.372 105.734 126.168C105.332 126 104.93 125.808 104.528 125.592C104.132 125.376 103.766 125.124 103.43 124.836C103.1 124.542 102.833 124.197 102.629 123.801C102.425 123.405 102.323 122.943 102.323 122.415C102.323 121.827 102.473 121.29 102.773 120.804C103.079 120.312 103.511 119.919 104.069 119.625C104.633 119.331 105.299 119.184 106.067 119.184C106.985 119.184 107.768 119.424 108.416 119.904C109.07 120.378 109.499 120.975 109.703 121.695L107.966 122.28C107.798 121.914 107.546 121.605 107.21 121.353C106.874 121.101 106.46 120.975 105.968 120.975C105.476 120.975 105.068 121.101 104.744 121.353C104.426 121.605 104.267 121.947 104.267 122.379C104.267 122.697 104.363 122.973 104.555 123.207C104.753 123.435 105.029 123.648 105.383 123.846C105.737 124.044 106.16 124.257 106.652 124.485C107.048 124.671 107.456 124.881 107.876 125.115C108.296 125.349 108.686 125.625 109.046 125.943C109.406 126.255 109.694 126.624 109.91 127.05C110.132 127.476 110.243 127.971 110.243 128.535C110.243 129.321 110.06 129.987 109.694 130.533C109.328 131.079 108.839 131.496 108.227 131.784C107.615 132.072 106.943 132.216 106.211 132.216ZM118.023 132.216C117.105 132.216 116.445 132.003 116.043 131.577C115.647 131.145 115.449 130.548 115.449 129.786V124.449H113.46V122.802H115.449V119.904L117.321 119.004V122.802H120.435V124.449H117.321V129.354C117.321 129.6 117.36 129.813 117.438 129.993C117.516 130.167 117.648 130.302 117.834 130.398C118.026 130.494 118.29 130.542 118.626 130.542C118.974 130.542 119.277 130.497 119.535 130.407C119.793 130.311 120.033 130.203 120.255 130.083L120.03 131.802C119.778 131.934 119.493 132.036 119.175 132.108C118.857 132.18 118.473 132.216 118.023 132.216ZM127.603 132.216C126.961 132.216 126.385 132.102 125.875 131.874C125.371 131.646 124.972 131.304 124.678 130.848C124.384 130.392 124.237 129.822 124.237 129.138C124.237 128.43 124.411 127.854 124.759 127.41C125.113 126.96 125.566 126.63 126.118 126.42C126.67 126.204 127.249 126.096 127.855 126.096C128.317 126.096 128.737 126.138 129.115 126.222C129.493 126.306 129.862 126.441 130.222 126.627V126.024C130.222 125.568 130.144 125.208 129.988 124.944C129.832 124.68 129.613 124.494 129.331 124.386C129.049 124.278 128.722 124.224 128.35 124.224C127.846 124.224 127.339 124.314 126.829 124.494C126.319 124.674 125.854 124.899 125.434 125.169L124.876 123.63C125.302 123.36 125.833 123.12 126.469 122.91C127.111 122.694 127.795 122.586 128.521 122.586C128.905 122.586 129.301 122.628 129.709 122.712C130.123 122.796 130.504 122.955 130.852 123.189C131.206 123.423 131.488 123.765 131.698 124.215C131.914 124.659 132.022 125.244 132.022 125.97V132H130.222V131.235C129.94 131.499 129.583 131.73 129.151 131.928C128.725 132.12 128.209 132.216 127.603 132.216ZM127.918 130.578C128.446 130.578 128.899 130.47 129.277 130.254C129.661 130.038 129.976 129.798 130.222 129.534V128.193C129.958 128.049 129.643 127.932 129.277 127.842C128.911 127.746 128.53 127.698 128.134 127.698C127.576 127.698 127.084 127.812 126.658 128.04C126.238 128.268 126.028 128.634 126.028 129.138C126.028 129.564 126.193 129.912 126.523 130.182C126.853 130.446 127.318 130.578 127.918 130.578ZM134.734 132V130.353H136.669V124.449H134.734V122.802H138.424V124.845L138.316 124.575C138.454 124.185 138.691 123.84 139.027 123.54C139.369 123.24 139.774 123.006 140.242 122.838C140.71 122.67 141.211 122.586 141.745 122.586C142.207 122.586 142.612 122.634 142.96 122.73C143.308 122.82 143.593 122.928 143.815 123.054V126.375H141.979V123.603L142.717 124.44C142.549 124.404 142.384 124.38 142.222 124.368C142.066 124.35 141.922 124.341 141.79 124.341C141.082 124.341 140.488 124.449 140.008 124.665C139.528 124.875 139.165 125.181 138.919 125.583C138.673 125.985 138.55 126.465 138.55 127.023V130.353H141.169V132H134.734ZM151.298 132.216C150.38 132.216 149.72 132.003 149.318 131.577C148.922 131.145 148.724 130.548 148.724 129.786V124.449H146.735V122.802H148.724V119.904L150.596 119.004V122.802H153.71V124.449H150.596V129.354C150.596 129.6 150.635 129.813 150.713 129.993C150.791 130.167 150.923 130.302 151.109 130.398C151.301 130.494 151.565 130.542 151.901 130.542C152.249 130.542 152.552 130.497 152.81 130.407C153.068 130.311 153.308 130.203 153.53 130.083L153.305 131.802C153.053 131.934 152.768 132.036 152.45 132.108C152.132 132.18 151.748 132.216 151.298 132.216Z" fill="white"/>
<path d="M139.36 195.216C138.496 195.216 137.773 195.027 137.191 194.649C136.609 194.265 136.147 193.758 135.805 193.128C135.469 192.492 135.229 191.79 135.085 191.022C134.941 190.254 134.869 189.48 134.869 188.7C134.869 188.118 134.911 187.524 134.995 186.918C135.079 186.306 135.22 185.721 135.418 185.163C135.622 184.599 135.895 184.092 136.237 183.642C136.579 183.192 137.008 182.838 137.524 182.58C138.04 182.316 138.652 182.184 139.36 182.184C140.23 182.184 140.956 182.373 141.538 182.751C142.12 183.129 142.579 183.636 142.915 184.272C143.257 184.908 143.5 185.61 143.644 186.378C143.794 187.146 143.869 187.92 143.869 188.7C143.869 189.282 143.824 189.879 143.734 190.491C143.65 191.097 143.506 191.682 143.302 192.246C143.104 192.804 142.831 193.308 142.483 193.758C142.135 194.208 141.703 194.565 141.187 194.829C140.677 195.087 140.068 195.216 139.36 195.216ZM139.36 193.416C139.876 193.416 140.299 193.278 140.629 193.002C140.965 192.72 141.226 192.348 141.412 191.886C141.598 191.424 141.727 190.917 141.799 190.365C141.877 189.807 141.916 189.252 141.916 188.7C141.916 188.118 141.874 187.548 141.79 186.99C141.712 186.426 141.577 185.919 141.385 185.469C141.199 185.013 140.938 184.65 140.602 184.38C140.272 184.11 139.858 183.975 139.36 183.975C138.85 183.975 138.427 184.116 138.091 184.398C137.755 184.68 137.494 185.055 137.308 185.523C137.122 185.985 136.99 186.495 136.912 187.053C136.84 187.605 136.804 188.154 136.804 188.7C136.804 189.282 136.843 189.855 136.921 190.419C136.999 190.977 137.131 191.484 137.317 191.94C137.509 192.39 137.77 192.75 138.1 193.02C138.436 193.284 138.856 193.416 139.36 193.416ZM139.36 189.942C139.012 189.942 138.721 189.822 138.487 189.582C138.253 189.336 138.136 189.042 138.136 188.7C138.136 188.364 138.253 188.076 138.487 187.836C138.721 187.596 139.012 187.476 139.36 187.476C139.714 187.476 140.008 187.596 140.242 187.836C140.482 188.076 140.602 188.364 140.602 188.7C140.602 189.042 140.482 189.336 140.242 189.582C140.008 189.822 139.714 189.942 139.36 189.942ZM149.516 195V184.866L146.771 185.676V183.849L151.442 182.364V195H149.516ZM146.384 195V193.155H154.52V195H146.384Z" fill="white"/>
<path d="M139.36 258.216C138.496 258.216 137.773 258.027 137.191 257.649C136.609 257.265 136.147 256.758 135.805 256.128C135.469 255.492 135.229 254.79 135.085 254.022C134.941 253.254 134.869 252.48 134.869 251.7C134.869 251.118 134.911 250.524 134.995 249.918C135.079 249.306 135.22 248.721 135.418 248.163C135.622 247.599 135.895 247.092 136.237 246.642C136.579 246.192 137.008 245.838 137.524 245.58C138.04 245.316 138.652 245.184 139.36 245.184C140.23 245.184 140.956 245.373 141.538 245.751C142.12 246.129 142.579 246.636 142.915 247.272C143.257 247.908 143.5 248.61 143.644 249.378C143.794 250.146 143.869 250.92 143.869 251.7C143.869 252.282 143.824 252.879 143.734 253.491C143.65 254.097 143.506 254.682 143.302 255.246C143.104 255.804 142.831 256.308 142.483 256.758C142.135 257.208 141.703 257.565 141.187 257.829C140.677 258.087 140.068 258.216 139.36 258.216ZM139.36 256.416C139.876 256.416 140.299 256.278 140.629 256.002C140.965 255.72 141.226 255.348 141.412 254.886C141.598 254.424 141.727 253.917 141.799 253.365C141.877 252.807 141.916 252.252 141.916 251.7C141.916 251.118 141.874 250.548 141.79 249.99C141.712 249.426 141.577 248.919 141.385 248.469C141.199 248.013 140.938 247.65 140.602 247.38C140.272 247.11 139.858 246.975 139.36 246.975C138.85 246.975 138.427 247.116 138.091 247.398C137.755 247.68 137.494 248.055 137.308 248.523C137.122 248.985 136.99 249.495 136.912 250.053C136.84 250.605 136.804 251.154 136.804 251.7C136.804 252.282 136.843 252.855 136.921 253.419C136.999 253.977 137.131 254.484 137.317 254.94C137.509 255.39 137.77 255.75 138.1 256.02C138.436 256.284 138.856 256.416 139.36 256.416ZM139.36 252.942C139.012 252.942 138.721 252.822 138.487 252.582C138.253 252.336 138.136 252.042 138.136 251.7C138.136 251.364 138.253 251.076 138.487 250.836C138.721 250.596 139.012 250.476 139.36 250.476C139.714 250.476 140.008 250.596 140.242 250.836C140.482 251.076 140.602 251.364 140.602 251.7C140.602 252.042 140.482 252.336 140.242 252.582C140.008 252.822 139.714 252.942 139.36 252.942ZM146.339 258C146.339 257.13 146.441 256.371 146.645 255.723C146.855 255.075 147.143 254.505 147.509 254.013C147.881 253.521 148.307 253.083 148.787 252.699C149.267 252.309 149.777 251.946 150.317 251.61C150.701 251.37 151.058 251.118 151.388 250.854C151.718 250.59 151.985 250.296 152.189 249.972C152.393 249.648 152.495 249.279 152.495 248.865C152.495 248.301 152.321 247.845 151.973 247.497C151.631 247.149 151.166 246.975 150.578 246.975C149.948 246.975 149.432 247.128 149.03 247.434C148.634 247.74 148.346 248.148 148.166 248.658L146.456 247.884C146.642 247.356 146.93 246.891 147.32 246.489C147.716 246.081 148.19 245.763 148.742 245.535C149.294 245.301 149.897 245.184 150.551 245.184C151.367 245.184 152.066 245.343 152.648 245.661C153.23 245.973 153.674 246.405 153.98 246.957C154.292 247.503 154.448 248.124 154.448 248.82C154.448 249.582 154.298 250.221 153.998 250.737C153.704 251.247 153.308 251.697 152.81 252.087C152.312 252.471 151.76 252.849 151.154 253.221C150.722 253.491 150.32 253.776 149.948 254.076C149.582 254.37 149.273 254.691 149.021 255.039C148.775 255.381 148.616 255.753 148.544 256.155H154.556V258H146.339Z" fill="white"/>
<path d="M139.36 321.216C138.496 321.216 137.773 321.027 137.191 320.649C136.609 320.265 136.147 319.758 135.805 319.128C135.469 318.492 135.229 317.79 135.085 317.022C134.941 316.254 134.869 315.48 134.869 314.7C134.869 314.118 134.911 313.524 134.995 312.918C135.079 312.306 135.22 311.721 135.418 311.163C135.622 310.599 135.895 310.092 136.237 309.642C136.579 309.192 137.008 308.838 137.524 308.58C138.04 308.316 138.652 308.184 139.36 308.184C140.23 308.184 140.956 308.373 141.538 308.751C142.12 309.129 142.579 309.636 142.915 310.272C143.257 310.908 143.5 311.61 143.644 312.378C143.794 313.146 143.869 313.92 143.869 314.7C143.869 315.282 143.824 315.879 143.734 316.491C143.65 317.097 143.506 317.682 143.302 318.246C143.104 318.804 142.831 319.308 142.483 319.758C142.135 320.208 141.703 320.565 141.187 320.829C140.677 321.087 140.068 321.216 139.36 321.216ZM139.36 319.416C139.876 319.416 140.299 319.278 140.629 319.002C140.965 318.72 141.226 318.348 141.412 317.886C141.598 317.424 141.727 316.917 141.799 316.365C141.877 315.807 141.916 315.252 141.916 314.7C141.916 314.118 141.874 313.548 141.79 312.99C141.712 312.426 141.577 311.919 141.385 311.469C141.199 311.013 140.938 310.65 140.602 310.38C140.272 310.11 139.858 309.975 139.36 309.975C138.85 309.975 138.427 310.116 138.091 310.398C137.755 310.68 137.494 311.055 137.308 311.523C137.122 311.985 136.99 312.495 136.912 313.053C136.84 313.605 136.804 314.154 136.804 314.7C136.804 315.282 136.843 315.855 136.921 316.419C136.999 316.977 137.131 317.484 137.317 317.94C137.509 318.39 137.77 318.75 138.1 319.02C138.436 319.284 138.856 319.416 139.36 319.416ZM139.36 315.942C139.012 315.942 138.721 315.822 138.487 315.582C138.253 315.336 138.136 315.042 138.136 314.7C138.136 314.364 138.253 314.076 138.487 313.836C138.721 313.596 139.012 313.476 139.36 313.476C139.714 313.476 140.008 313.596 140.242 313.836C140.482 314.076 140.602 314.364 140.602 314.7C140.602 315.042 140.482 315.336 140.242 315.582C140.008 315.822 139.714 315.942 139.36 315.942ZM150.443 321.216C149.705 321.216 149.063 321.093 148.517 320.847C147.971 320.595 147.509 320.247 147.131 319.803C146.753 319.353 146.456 318.84 146.24 318.264L147.977 317.544C148.259 318.198 148.607 318.672 149.021 318.966C149.441 319.26 149.927 319.407 150.479 319.407C150.899 319.407 151.277 319.332 151.613 319.182C151.955 319.032 152.225 318.81 152.423 318.516C152.627 318.222 152.729 317.856 152.729 317.418C152.729 316.818 152.537 316.326 152.153 315.942C151.769 315.552 151.187 315.357 150.407 315.357H149.345V313.548H150.326C150.914 313.548 151.385 313.386 151.739 313.062C152.093 312.738 152.27 312.303 152.27 311.757C152.27 311.223 152.099 310.794 151.757 310.47C151.421 310.146 150.989 309.984 150.461 309.984C150.089 309.984 149.768 310.059 149.498 310.209C149.228 310.353 149 310.539 148.814 310.767C148.628 310.995 148.475 311.235 148.355 311.487L146.618 310.821C146.822 310.329 147.101 309.885 147.455 309.489C147.809 309.087 148.235 308.769 148.733 308.535C149.237 308.301 149.81 308.184 150.452 308.184C151.178 308.184 151.823 308.328 152.387 308.616C152.951 308.904 153.395 309.303 153.719 309.813C154.043 310.323 154.205 310.902 154.205 311.55C154.205 312.138 154.064 312.672 153.782 313.152C153.506 313.626 153.125 314.001 152.639 314.277C153.239 314.511 153.728 314.898 154.106 315.438C154.49 315.972 154.682 316.623 154.682 317.391C154.682 318.171 154.496 318.849 154.124 319.425C153.758 319.995 153.254 320.436 152.612 320.748C151.976 321.06 151.253 321.216 150.443 321.216Z" fill="white"/>
</g>
<defs>
<filter id="filter0_d_1_123">
<feOffset/>
</filter>
</defs>
</svg>
