<svg width="24" height="173" viewBox="0 0 24 173" fill="none" xmlns="http://www.w3.org/2000/svg">
<path d="M7 1.503L19.6 1.503L19.6 9.774L17.773 9.774L17.773 3.429L14.425 3.429L14.425 7.983L12.598 7.983L12.598 3.429L7 3.429L7 1.503ZM6.784 16.6358C6.784 15.7478 6.976 14.9768 7.36 14.3228C7.75 13.6688 8.302 13.1618 9.016 12.8018C9.736 12.4478 10.594 12.2708 11.59 12.2708C12.574 12.2708 13.426 12.4478 14.146 12.8018C14.872 13.1618 15.43 13.6688 15.82 14.3228C16.216 14.9768 16.414 15.7478 16.414 16.6358C16.414 17.5298 16.219 18.3038 15.829 18.9578C15.445 19.6178 14.89 20.1248 14.164 20.4788C13.444 20.8328 12.589 21.0098 11.599 21.0098C10.609 21.0098 9.754 20.8328 9.034 20.4788C8.314 20.1248 7.759 19.6178 7.369 18.9578C6.979 18.3038 6.784 17.5298 6.784 16.6358ZM8.557 16.6358C8.557 17.4338 8.83 18.0458 9.376 18.4718C9.928 18.8978 10.669 19.1108 11.599 19.1108C12.529 19.1108 13.27 18.9008 13.822 18.4808C14.38 18.0668 14.659 17.4518 14.659 16.6358C14.659 15.8378 14.383 15.2258 13.831 14.7998C13.285 14.3738 12.538 14.1608 11.59 14.1608C10.666 14.1608 9.928 14.3738 9.376 14.7998C8.83 15.2258 8.557 15.8378 8.557 16.6358ZM7 26.7916L19.843 26.7916L19.996 28.6546L7 28.6546L7 26.7916ZM7 24.1456L8.647 24.1456L8.647 31.3006L7 31.3006L7 24.1456ZM18.349 24.6226L19.996 23.7676L19.996 28.6546L18.349 28.4926L18.349 24.6226ZM7 37.8834L19.843 37.8834L19.996 39.7464L7 39.7464L7 37.8834ZM7 35.2374L8.647 35.2374L8.647 42.3924L7 42.3924L7 35.2374ZM18.349 35.7144L19.996 34.8594L19.996 39.7464L18.349 39.5844L18.349 35.7144ZM6.784 49.9112C6.784 49.0232 6.976 48.2522 7.36 47.5982C7.75 46.9442 8.302 46.4372 9.016 46.0772C9.736 45.7232 10.594 45.5462 11.59 45.5462C12.574 45.5462 13.426 45.7232 14.146 46.0772C14.872 46.4372 15.43 46.9442 15.82 47.5982C16.216 48.2522 16.414 49.0232 16.414 49.9112C16.414 50.8052 16.219 51.5792 15.829 52.2332C15.445 52.8932 14.89 53.4002 14.164 53.7542C13.444 54.1082 12.589 54.2852 11.599 54.2852C10.609 54.2852 9.754 54.1082 9.034 53.7542C8.314 53.4002 7.759 52.8932 7.369 52.2332C6.979 51.5792 6.784 50.8052 6.784 49.9112ZM8.557 49.9112C8.557 50.7092 8.83 51.3212 9.376 51.7472C9.928 52.1732 10.669 52.3862 11.599 52.3862C12.529 52.3862 13.27 52.1762 13.822 51.7562C14.38 51.3422 14.659 50.7272 14.659 49.9112C14.659 49.1132 14.383 48.5012 13.831 48.0752C13.285 47.6492 12.538 47.4362 11.59 47.4362C10.666 47.4362 9.928 47.6492 9.376 48.0752C8.83 48.5012 8.557 49.1132 8.557 49.9112ZM7 58.132L16.198 55.801L16.198 57.529L11.005 58.78C10.867 58.816 10.729 58.846 10.591 58.87C10.453 58.894 10.309 58.918 10.159 58.942C10.333 58.972 10.483 58.996 10.609 59.014C10.741 59.038 10.882 59.068 11.032 59.104L16.198 60.283L16.198 61.732L11.014 62.911C10.87 62.947 10.726 62.98 10.582 63.01C10.444 63.04 10.291 63.067 10.123 63.091C10.285 63.115 10.435 63.139 10.573 63.163C10.711 63.187 10.858 63.22 11.014 63.262L16.198 64.468L16.198 66.214L7 63.865L7 62.38L12.022 61.228C12.166 61.198 12.346 61.159 12.562 61.111C12.784 61.069 12.988 61.033 13.174 61.003C12.982 60.967 12.778 60.925 12.562 60.877C12.346 60.829 12.169 60.79 12.031 60.76L7 59.644L7 58.132ZM6.784 82.7096C6.784 82.0316 6.91 81.4346 7.162 80.9186C7.42 80.4026 7.84 79.9976 8.422 79.7036C9.004 79.4156 9.781 79.2716 10.753 79.2716L16.198 79.2716L16.198 81.1436L10.969 81.1436C10.081 81.1436 9.457 81.3326 9.097 81.7106C8.743 82.0946 8.566 82.5626 8.566 83.1146C8.566 83.4926 8.635 83.8406 8.773 84.1586C8.917 84.4826 9.16 84.7406 9.502 84.9326C9.85 85.1306 10.327 85.2296 10.933 85.2296L16.198 85.2296L16.198 87.1016L7 87.1016L7 85.2296L7.891 85.2296C7.549 84.9536 7.279 84.5996 7.081 84.1676C6.883 83.7356 6.784 83.2496 6.784 82.7096ZM6.784 94.2964C6.784 93.5404 6.934 92.8444 7.234 92.2084C7.54 91.5724 7.933 91.0594 8.413 90.6694L9.538 91.9204C9.268 92.1784 9.013 92.5174 8.773 92.9374C8.533 93.3634 8.413 93.8524 8.413 94.4044C8.413 94.8484 8.494 95.2174 8.656 95.5114C8.818 95.8114 9.073 95.9614 9.421 95.9614C9.667 95.9614 9.877 95.8684 10.051 95.6824C10.225 95.4964 10.384 95.2354 10.528 94.8994C10.678 94.5694 10.837 94.1794 11.005 93.7294C11.215 93.1654 11.443 92.6644 11.689 92.2264C11.935 91.7884 12.235 91.4434 12.589 91.1914C12.949 90.9394 13.399 90.8134 13.939 90.8134C14.455 90.8134 14.896 90.9634 15.262 91.2634C15.634 91.5694 15.919 91.9804 16.117 92.4964C16.315 93.0184 16.414 93.6004 16.414 94.2424C16.414 94.9984 16.276 95.6554 16 96.2134C15.73 96.7714 15.388 97.2334 14.974 97.5994L13.93 96.3394C14.146 96.0994 14.341 95.7994 14.515 95.4394C14.695 95.0794 14.785 94.6384 14.785 94.1164C14.785 93.6784 14.713 93.3184 14.569 93.0364C14.425 92.7604 14.209 92.6224 13.921 92.6224C13.705 92.6224 13.516 92.7154 13.354 92.9014C13.198 93.0874 13.054 93.3334 12.922 93.6394C12.79 93.9514 12.655 94.2934 12.517 94.6654C12.331 95.1754 12.118 95.6674 11.878 96.1414C11.638 96.6214 11.329 97.0114 10.951 97.3114C10.573 97.6174 10.075 97.7704 9.457 97.7704C8.617 97.7704 7.96 97.4554 7.486 96.8254C7.018 96.1954 6.784 95.3524 6.784 94.2964Z" fill="white"/>
<path d="M7.8 114H16.2C19.4032 114 22 116.597 22 119.8V128.2C22 131.403 19.4032 134 16.2 134H7.8C4.59675 134 2 131.403 2 128.2V119.8C2 116.597 4.59675 114 7.8 114ZM7.6 116C5.61177 116 4 117.612 4 119.6V128.4C4 130.388 5.61177 132 7.6 132H16.4C18.3882 132 20 130.388 20 128.4V119.6C20 117.612 18.3882 116 16.4 116H7.6ZM17.25 117.5C17.9404 117.5 18.5 118.06 18.5 118.75C18.5 119.44 17.9404 120 17.25 120C16.5596 120 16 119.44 16 118.75C16 118.06 16.5596 117.5 17.25 117.5ZM12 119C14.7614 119 17 121.239 17 124C17 126.761 14.7614 129 12 129C9.23857 129 7 126.761 7 124C7 121.239 9.23857 119 12 119ZM12 121C10.3431 121 9 122.343 9 124C9 125.657 10.3431 127 12 127C13.6569 127 15 125.657 15 124C15 122.343 13.6569 121 12 121Z" fill="white"/>
<path d="M22.4592 155.012C21.6896 155.354 20.8624 155.584 19.9944 155.688C20.8803 155.157 21.5609 154.316 21.8813 153.314C21.052 153.806 20.1336 154.163 19.156 154.355C18.3732 153.521 17.2579 153 16.0235 153C13.6534 153 11.7317 154.921 11.7317 157.292C11.7317 157.628 11.7697 157.955 11.8429 158.27C8.27609 158.091 5.11375 156.382 2.99709 153.786C2.62765 154.419 2.41601 155.157 2.41601 155.943C2.41601 157.432 3.17364 158.746 4.32523 159.515C3.62179 159.493 2.95996 159.3 2.38139 158.978C2.38098 158.996 2.38098 159.014 2.38098 159.032C2.38098 161.112 3.86033 162.846 5.82359 163.241C5.46349 163.339 5.08434 163.391 4.69294 163.391C4.4164 163.391 4.14755 163.364 3.88546 163.314C4.43161 165.019 6.01653 166.26 7.89454 166.295C6.42576 167.446 4.57527 168.132 2.56453 168.132C2.21812 168.132 1.87651 168.111 1.54077 168.072C3.44003 169.289 5.69591 170 8.1195 170C16.0134 170 20.3302 163.46 20.3302 157.789C20.3302 157.603 20.326 157.418 20.3177 157.234C21.1563 156.629 21.8839 155.873 22.4592 155.012Z" fill="white"/>
</svg>
